<svg width="24" height="23" viewBox="0 0 24 23" fill="none" xmlns="http://www.w3.org/2000/svg">
<path d="M17.5 0.917C16.3739 0.934515 15.2724 1.24885 14.3068 1.82827C13.3411 2.40769 12.5453 3.23167 12 4.217C11.4546 3.23167 10.6589 2.40769 9.69323 1.82827C8.72753 1.24885 7.62604 0.934515 6.49999 0.917C4.70493 0.994991 3.01369 1.78025 1.79577 3.10123C0.577848 4.42221 -0.0677617 6.17153 -1.11917e-05 7.967C-1.11917e-05 12.514 4.78599 17.48 8.79999 20.847C9.69621 21.6001 10.8293 22.013 12 22.013C13.1706 22.013 14.3038 21.6001 15.2 20.847C19.214 17.48 24 12.514 24 7.967C24.0677 6.17153 23.4221 4.42221 22.2042 3.10123C20.9863 1.78025 19.295 0.994991 17.5 0.917ZM13.915 19.317C13.379 19.7684 12.7007 20.0159 12 20.0159C11.2992 20.0159 10.621 19.7684 10.085 19.317C4.94699 15.006 1.99999 10.87 1.99999 7.967C1.93163 6.70172 2.36635 5.46073 3.20935 4.5147C4.05235 3.56867 5.23522 2.99435 6.49999 2.917C7.76476 2.99435 8.94763 3.56867 9.79063 4.5147C10.6336 5.46073 11.0683 6.70172 11 7.967C11 8.23222 11.1053 8.48657 11.2929 8.67411C11.4804 8.86164 11.7348 8.967 12 8.967C12.2652 8.967 12.5196 8.86164 12.7071 8.67411C12.8946 8.48657 13 8.23222 13 7.967C12.9316 6.70172 13.3664 5.46073 14.2094 4.5147C15.0523 3.56867 16.2352 2.99435 17.5 2.917C18.7648 2.99435 19.9476 3.56867 20.7906 4.5147C21.6336 5.46073 22.0683 6.70172 22 7.967C22 10.87 19.053 15.006 13.915 19.313V19.317Z" fill="white"/>
</svg>
