<svg width="16" height="20" viewBox="0 0 16 20" fill="none" xmlns="http://www.w3.org/2000/svg">
<path d="M8 20C10.121 19.9976 12.1544 19.154 13.6542 17.6542C15.154 16.1544 15.9976 14.121 16 12V7.99999C16 5.87826 15.1571 3.84343 13.6569 2.34314C12.1566 0.842847 10.1217 -7.62939e-06 8 -7.62939e-06C5.87827 -7.62939e-06 3.84344 0.842847 2.34315 2.34314C0.842855 3.84343 0 5.87826 0 7.99999V12C0.00238211 14.121 0.846002 16.1544 2.34578 17.6542C3.84555 19.154 5.879 19.9976 8 20ZM8 1.99999C9.41655 2.00262 10.7866 2.50586 11.868 3.42079C12.9495 4.33572 13.6727 5.60345 13.91 6.99999H11C10.7348 6.99999 10.4804 7.10535 10.2929 7.29289C10.1054 7.48042 10 7.73478 10 7.99999C10 8.26521 10.1054 8.51956 10.2929 8.7071C10.4804 8.89464 10.7348 8.99999 11 8.99999H14V11H11C10.7348 11 10.4804 11.1053 10.2929 11.2929C10.1054 11.4804 10 11.7348 10 12C10 12.2652 10.1054 12.5196 10.2929 12.7071C10.4804 12.8946 10.7348 13 11 13H13.91C13.675 14.3975 12.9523 15.6665 11.8704 16.5817C10.7884 17.4969 9.41712 17.999 8 17.999C6.58288 17.999 5.21161 17.4969 4.12965 16.5817C3.04768 15.6665 2.32503 14.3975 2.09 13H5C5.26522 13 5.51957 12.8946 5.70711 12.7071C5.89464 12.5196 6 12.2652 6 12C6 11.7348 5.89464 11.4804 5.70711 11.2929C5.51957 11.1053 5.26522 11 5 11H2V8.99999H5C5.26522 8.99999 5.51957 8.89464 5.70711 8.7071C5.89464 8.51956 6 8.26521 6 7.99999C6 7.73478 5.89464 7.48042 5.70711 7.29289C5.51957 7.10535 5.26522 6.99999 5 6.99999H2.09C2.32727 5.60345 3.05052 4.33572 4.13197 3.42079C5.21342 2.50586 6.58345 2.00262 8 1.99999Z" fill="white"/>
</svg>
